<?xml version="1.0" standalone="no"?>
<!DOCTYPE svg PUBLIC "-//W3C//DTD SVG 20010904//EN"
 "http://www.w3.org/TR/2001/REC-SVG-20010904/DTD/svg10.dtd">
<svg version="1.0" xmlns="http://www.w3.org/2000/svg"
 width="700.000000pt" height="700.000000pt" viewBox="0 0 700.000000 700.000000"
 preserveAspectRatio="xMidYMid meet">
<g transform="translate(0.000000,700.000000) scale(0.100000,-0.100000)"
fill="#b1944c" stroke="none">
<path d="M2830 6986 c0 -5 -3 -7 -6 -3 -3 3 -17 2 -30 -3 -17 -7 -24 -6 -24 2
0 7 -7 3 -16 -8 -8 -10 -13 -13 -9 -6 3 6 1 12 -4 12 -6 0 -11 -4 -11 -9 0 -5
-14 -8 -31 -7 -17 1 -33 -3 -36 -9 -2 -7 -14 -11 -26 -11 -12 1 -27 -2 -33 -6
-7 -5 -26 -10 -43 -11 -17 -1 -31 -5 -31 -9 0 -5 -11 -8 -25 -8 -14 0 -25 -6
-25 -12 0 -9 -4 -8 -10 2 -6 10 -10 11 -10 3 0 -7 -6 -13 -14 -13 -10 0 -14
-10 -14 -30 1 -16 5 -27 10 -24 7 4 13 -34 9 -58 0 -5 3 -8 9 -8 6 0 10 -11
10 -24 0 -14 5 -28 11 -32 8 -4 7 -9 -2 -15 -10 -6 -11 -9 -1 -9 6 0 12 -7 12
-15 0 -8 5 -15 11 -15 8 0 8 -5 -1 -15 -9 -10 -9 -15 -1 -15 6 0 11 -9 11 -21
0 -11 4 -18 8 -15 5 3 8 -5 7 -17 -1 -12 2 -30 7 -41 6 -10 12 -28 13 -40 4
-22 12 -57 15 -66 1 -3 2 -8 1 -12 0 -5 3 -8 9 -8 5 0 7 -7 4 -15 -4 -8 -1
-15 6 -15 6 0 8 -5 5 -10 -4 -6 -1 -18 7 -27 11 -14 11 -16 0 -9 -12 7 -12 4
-1 -15 7 -13 14 -28 15 -34 1 -5 4 -21 7 -35 3 -14 9 -36 15 -50 5 -14 8 -33
6 -43 -1 -9 2 -15 7 -11 5 3 9 -4 9 -15 0 -11 5 -23 10 -26 7 -4 7 -13 0 -26
-7 -13 -7 -19 0 -19 5 0 10 -8 10 -18 0 -10 6 -24 13 -31 10 -11 10 -13 0 -7
-7 4 -13 2 -13 -3 0 -6 5 -11 10 -11 6 0 10 -14 10 -31 0 -16 4 -28 9 -25 4 3
7 -5 6 -18 -2 -14 3 -36 11 -50 9 -19 10 -25 1 -19 -7 4 -7 1 2 -10 7 -9 11
-23 8 -32 -4 -8 0 -20 7 -27 7 -7 12 -30 12 -50 -1 -20 3 -36 8 -35 6 1 11
-13 12 -30 2 -50 3 -55 12 -49 4 2 7 -8 6 -22 -1 -15 4 -33 10 -41 9 -12 8
-13 -4 -6 -11 7 -10 2 4 -19 11 -17 13 -25 5 -20 -11 6 -12 5 -3 -7 6 -8 14
-30 18 -49 13 -72 17 -95 18 -107 1 -7 6 -13 11 -13 5 0 4 -6 -2 -14 -9 -10
-8 -15 2 -19 8 -3 12 -18 11 -36 -1 -17 1 -31 5 -31 4 0 8 -17 9 -37 2 -21 8
-40 14 -44 7 -4 7 -9 -1 -14 -8 -4 -9 -11 -2 -19 6 -7 11 -29 13 -49 1 -20 6
-37 10 -37 4 0 7 -3 7 -7 -6 -34 3 -93 12 -87 7 4 7 -1 -1 -16 -8 -15 -8 -20
-1 -16 7 5 11 -5 12 -28 2 -48 3 -53 11 -62 4 -4 2 -14 -5 -22 -9 -13 -9 -14
1 -8 9 5 12 -3 12 -33 0 -22 4 -42 8 -45 5 -3 8 -21 7 -41 0 -19 3 -35 8 -35
5 0 3 -8 -4 -17 -10 -11 -10 -14 -1 -9 7 4 12 2 13 -6 0 -7 2 -34 5 -60 4 -46
4 -47 -23 -42 -16 3 -40 11 -56 19 -19 9 -25 10 -21 2 5 -8 3 -8 -7 1 -7 6
-24 12 -37 12 -13 0 -21 4 -18 9 3 5 -6 9 -20 9 -15 0 -29 3 -33 8 -3 5 -17
11 -31 12 -14 2 -26 8 -28 13 -2 5 -15 9 -28 9 -13 0 -24 5 -24 10 0 6 -9 10
-21 10 -11 0 -18 4 -14 9 3 6 -6 8 -21 5 -16 -3 -23 -1 -19 6 3 6 -3 10 -15
10 -13 0 -19 4 -14 12 4 6 3 8 -3 5 -5 -3 -21 0 -36 8 -14 7 -28 11 -30 9 -2
-3 -10 2 -17 11 -7 8 -17 15 -22 15 -5 0 -21 9 -35 20 -14 11 -29 17 -34 14
-5 -3 -9 0 -9 5 0 6 -5 11 -11 11 -6 0 -17 7 -26 15 -8 8 -18 13 -23 10 -4 -3
-11 2 -14 11 -3 8 -10 12 -16 9 -5 -3 -10 -1 -10 4 0 6 -7 11 -15 11 -7 0 -19
8 -24 18 -6 9 -11 13 -11 8 0 -5 -9 1 -20 14 -11 13 -20 20 -20 16 0 -4 -7 -1
-15 6 -29 27 -44 38 -50 38 -5 0 -13 7 -69 58 -14 12 -29 22 -33 22 -5 0 -19
14 -33 30 -14 17 -31 30 -38 30 -7 0 -10 5 -7 10 3 6 -1 10 -10 10 -9 0 -13 5
-10 10 3 6 1 10 -5 10 -6 0 -37 27 -68 59 -83 87 -123 131 -118 131 2 0 -10
15 -27 34 -48 50 -82 96 -80 106 2 5 -6 12 -17 15 -11 4 -17 12 -13 21 3 8 -1
14 -11 14 -9 0 -15 4 -14 9 2 5 -6 17 -17 26 -11 9 -14 14 -7 10 6 -3 12 -1
12 4 0 6 -6 11 -14 11 -8 0 -18 5 -22 12 -5 7 -3 8 6 3 8 -5 3 7 -10 26 -13
19 -28 36 -32 37 -4 2 -8 12 -8 23 0 10 -3 19 -7 19 -5 0 -19 23 -32 50 -14
28 -29 50 -33 50 -4 0 -7 3 -6 8 4 13 -13 52 -22 52 -5 0 -7 7 -4 15 4 8 2 15
-4 15 -5 0 -13 16 -16 36 -4 19 -14 38 -22 41 -11 4 -12 8 -3 20 10 11 10 13
-1 11 -8 -2 -15 4 -15 12 -2 21 -17 54 -29 62 -8 5 -7 8 1 8 8 0 5 12 -8 35
-12 19 -19 42 -16 49 3 8 -1 20 -9 26 -8 7 -14 23 -14 36 0 13 -5 24 -11 24
-5 0 -7 6 -3 13 4 6 -7 -3 -25 -21 -17 -18 -31 -30 -31 -27 0 3 -20 -14 -44
-39 -24 -24 -47 -42 -49 -39 -3 2 -8 -4 -11 -15 -4 -11 -14 -23 -22 -26 -8 -3
-12 -10 -9 -16 3 -5 0 -7 -8 -4 -8 3 -18 -6 -25 -21 -7 -14 -17 -23 -22 -20
-6 3 -10 -1 -10 -10 0 -10 -5 -13 -12 -9 -8 5 -9 2 -5 -10 4 -9 3 -15 -2 -12
-11 7 -33 -19 -24 -28 4 -4 -1 -4 -10 0 -10 3 -17 3 -15 -2 4 -15 -26 -54 -41
-54 -11 0 -11 -3 -1 -15 10 -12 10 -15 0 -15 -9 0 -8 -6 4 -19 10 -11 15 -24
12 -30 -3 -5 1 -16 9 -24 8 -9 15 -22 15 -30 0 -7 3 -17 8 -21 7 -7 8 -11 11
-37 0 -5 5 -8 10 -4 6 3 8 -3 6 -14 -2 -11 3 -25 11 -32 8 -6 14 -19 14 -29 0
-10 7 -23 15 -30 8 -7 14 -20 13 -29 -2 -9 2 -15 9 -14 7 2 10 -4 7 -12 -4 -8
-2 -15 3 -15 5 0 15 -16 23 -35 8 -19 18 -35 22 -35 5 0 7 -4 4 -9 -3 -5 1
-14 9 -21 8 -7 15 -19 15 -26 0 -8 5 -14 12 -14 6 0 9 -3 5 -6 -3 -4 1 -13 9
-21 8 -8 12 -18 9 -23 -3 -4 2 -10 10 -14 8 -3 15 -12 15 -21 0 -8 5 -15 11
-15 5 0 8 -4 5 -9 -3 -5 1 -11 9 -15 8 -3 15 -10 15 -15 0 -6 11 -22 25 -37
13 -14 23 -30 20 -33 -2 -4 5 -14 16 -21 10 -8 19 -20 19 -26 0 -6 10 -19 23
-28 12 -9 15 -14 7 -10 -8 3 0 -7 17 -24 18 -16 33 -33 33 -37 0 -4 12 -18 28
-31 15 -13 23 -24 19 -24 -5 0 17 -25 48 -55 30 -30 60 -55 65 -55 6 0 9 -3 8
-7 -3 -10 70 -85 105 -108 15 -9 27 -24 27 -32 0 -8 4 -12 8 -9 5 3 15 -3 24
-12 20 -22 57 -52 64 -52 12 0 33 -28 26 -35 -4 -5 -2 -5 4 -2 6 3 22 -5 37
-19 15 -14 27 -21 27 -17 0 4 6 0 13 -9 8 -9 20 -18 27 -20 20 -4 39 -22 33
-30 -2 -5 4 -8 14 -8 10 0 25 -9 33 -20 11 -15 17 -17 29 -7 8 7 12 8 9 2 -3
-5 0 -16 8 -23 8 -7 14 -9 14 -5 0 4 6 1 13 -7 7 -8 26 -22 42 -30 17 -8 36
-21 43 -28 8 -7 18 -10 23 -7 5 4 9 1 9 -4 0 -6 7 -11 15 -11 7 0 19 -8 24
-17 6 -10 11 -15 11 -10 0 4 19 -3 43 -15 23 -12 45 -21 50 -20 4 1 7 -3 7
-10 0 -6 3 -9 6 -5 3 3 24 -5 45 -19 21 -13 47 -24 58 -24 10 0 24 -7 31 -15
7 -9 19 -14 26 -11 7 3 15 -2 18 -9 3 -8 14 -12 26 -10 11 2 18 0 16 -4 -4 -6
61 -35 84 -36 3 -1 16 -7 28 -14 13 -7 26 -10 29 -7 3 3 12 -1 19 -9 8 -8 22
-11 31 -8 11 4 14 3 9 -5 -5 -8 4 -12 28 -12 20 0 36 -4 36 -10 0 -5 11 -10
25 -10 14 0 25 -5 25 -11 0 -5 3 -8 8 -6 4 3 18 0 32 -6 23 -9 47 -15 78 -19
6 -1 12 -5 12 -10 0 -5 4 -7 9 -4 15 9 42 -5 34 -18 -4 -6 0 -6 9 2 11 9 18
10 23 2 3 -6 10 -8 15 -5 5 3 11 1 15 -5 4 -6 10 -8 14 -6 4 3 7 -18 6 -45 -1
-27 3 -49 7 -49 4 0 4 -7 1 -17 -4 -9 -2 -14 3 -11 5 4 9 -24 9 -65 -1 -44 5
-81 13 -94 10 -16 10 -23 1 -29 -8 -5 -9 -3 -4 6 6 9 4 11 -5 5 -10 -6 -9 -11
5 -22 11 -7 14 -13 8 -13 -8 0 -9 -10 -4 -27 4 -16 6 -38 5 -51 -1 -12 3 -25
8 -28 6 -4 5 -10 -3 -15 -11 -7 -11 -9 -1 -9 10 0 10 -5 1 -21 -6 -12 -7 -19
-1 -15 5 3 10 -14 11 -42 1 -26 3 -54 3 -62 0 -8 6 -21 12 -29 8 -11 8 -13 -1
-8 -8 5 -11 0 -10 -13 1 -11 6 -20 12 -20 5 0 3 -5 -5 -10 -8 -5 -10 -10 -4
-10 6 0 11 -28 13 -67 3 -92 3 -93 15 -93 7 0 7 -3 1 -8 -14 -10 -15 -42 -1
-42 6 0 4 -5 -4 -10 -12 -8 -12 -10 -1 -10 11 0 11 -3 0 -17 -8 -10 -9 -14 -2
-10 8 5 11 -6 10 -43 -1 -28 2 -50 8 -50 6 0 4 -4 -4 -9 -11 -7 -10 -11 5 -20
11 -6 13 -11 7 -11 -7 0 -13 -7 -13 -16 0 -9 5 -12 12 -8 7 5 8 3 3 -7 -13
-20 -13 -49 -2 -42 7 4 7 -1 3 -13 -5 -10 -8 -23 -7 -29 5 -43 10 -97 10 -133
1 -32 4 -41 14 -36 9 6 8 3 -1 -8 -11 -13 -11 -21 -2 -39 10 -17 10 -20 -2
-13 -11 6 -11 5 0 -8 9 -12 10 -18 2 -23 -6 -4 -7 -12 -3 -18 5 -7 9 -53 8
-104 0 -50 3 -89 7 -86 5 2 6 -21 5 -51 -2 -35 1 -56 7 -56 6 0 4 -5 -4 -10
-13 -9 -13 -10 0 -10 13 0 13 -1 0 -10 -8 -5 -10 -10 -4 -10 6 0 10 -28 9 -72
0 -41 4 -76 10 -80 6 -5 5 -8 -4 -8 -11 0 -11 -3 0 -17 12 -14 12 -16 0 -8
-11 6 -13 4 -8 -9 4 -10 7 -20 7 -22 0 -3 6 -2 13 2 9 6 9 5 1 -7 -15 -19 -15
-71 0 -62 6 4 5 0 -2 -9 -9 -11 -10 -18 -2 -23 7 -4 7 -12 0 -26 -8 -14 -7
-19 2 -19 8 0 9 -3 3 -8 -11 -8 -13 -21 -4 -37 3 -5 4 -47 4 -92 -1 -56 2 -80
9 -76 6 3 6 0 -1 -7 -9 -9 -9 -19 -2 -33 8 -14 8 -18 0 -13 -6 4 -11 0 -11 -9
0 -10 5 -13 12 -9 7 5 8 3 3 -5 -11 -18 -13 -71 -2 -71 5 0 4 -6 -2 -14 -9
-11 -9 -20 -2 -34 7 -13 7 -23 -2 -32 -9 -10 -9 -11 1 -6 15 9 16 -8 2 -34 -9
-16 -8 -18 5 -14 11 5 13 2 9 -10 -3 -9 -11 -13 -16 -10 -6 4 -5 -3 1 -15 7
-11 8 -21 4 -21 -4 0 -1 -5 7 -10 8 -5 11 -10 5 -10 -11 0 -12 -66 -2 -76 4
-4 3 -14 -1 -23 -6 -14 -7 -45 -3 -61 1 -3 3 -133 4 -290 1 -157 6 -291 11
-299 6 -10 5 -12 -2 -7 -8 5 -12 0 -12 -13 0 -12 6 -21 13 -21 8 0 8 -3 2 -8
-7 -4 -12 -83 -13 -209 l-2 -203 23 -2 c12 -1 120 -2 239 -2 l217 -1 -1 88 c0
48 2 90 5 93 2 3 1 21 -3 40 -4 19 -5 36 -1 38 3 2 4 48 1 101 -3 53 -4 98 -2
100 6 6 5 223 -2 233 -3 6 -3 13 2 16 8 5 6 120 -3 143 -2 7 -1 15 4 17 4 3 6
34 5 70 -1 42 2 64 8 60 6 -4 6 1 -1 13 -11 22 -9 102 4 123 5 8 4 11 -2 7 -5
-4 -10 6 -10 23 0 18 4 27 11 23 6 -3 5 0 -1 8 -16 16 -17 33 -2 23 8 -5 8 -1
0 14 -8 15 -8 22 2 25 9 4 9 6 0 6 -7 1 -13 6 -13 12 0 5 3 8 8 6 4 -3 8 6 9
20 1 19 -1 22 -8 12 -7 -11 -9 -11 -9 4 0 9 4 17 8 17 10 0 8 62 -2 78 -4 7
-4 12 1 12 4 0 8 42 7 93 0 50 4 100 8 110 5 9 5 17 0 17 -10 0 -9 30 2 48 4
7 2 12 -4 12 -8 0 -8 6 0 20 8 15 8 20 -2 21 -7 0 -4 4 7 9 11 5 15 9 8 9 -14
1 -12 71 2 71 6 0 3 5 -5 10 -8 5 -10 10 -5 10 6 0 10 28 10 63 0 43 5 66 15
75 8 8 10 11 4 8 -7 -3 -11 9 -10 34 1 22 3 40 6 40 3 0 5 15 5 32 -1 18 4 36
9 40 8 6 7 11 -3 17 -8 5 -9 10 -2 12 6 2 12 28 13 56 2 29 6 53 11 53 4 0 7
7 7 16 0 9 -5 12 -12 8 -7 -4 -5 2 5 13 9 11 14 23 10 27 -4 4 -1 11 7 16 11
7 12 10 2 10 -8 0 -10 5 -5 12 10 16 15 38 14 63 0 10 5 26 12 34 10 12 9 13
-3 6 -13 -8 -13 -6 -2 8 8 9 11 20 8 26 -4 5 1 16 9 24 11 12 12 17 2 20 -9 4
-9 6 0 6 7 1 10 8 7 16 -4 9 -1 15 7 15 10 0 10 3 2 11 -9 9 -8 15 2 26 8 7
12 20 9 28 -4 8 -2 15 4 15 6 0 9 11 7 25 -1 14 2 28 6 31 5 3 9 14 9 25 0 11
4 18 9 15 5 -4 8 2 7 11 -2 10 3 32 10 50 11 25 11 33 1 36 -7 3 -4 6 6 6 10
1 16 5 13 10 -3 5 1 14 9 21 12 10 13 16 4 26 -7 9 -8 14 -1 14 9 0 21 27 26
55 0 6 6 19 12 30 6 11 17 38 24 60 7 22 17 42 21 45 5 3 10 17 11 30 3 27 19
50 30 44 4 -3 5 5 3 16 -2 11 1 20 6 20 6 0 8 4 5 9 -3 5 1 14 9 21 8 7 13 16
10 20 -3 5 1 15 9 23 8 8 12 17 9 21 -3 3 1 8 10 12 9 3 13 12 10 21 -4 11 -2
14 5 9 8 -5 12 0 12 13 0 12 5 21 11 21 5 0 7 5 4 10 -3 6 1 13 9 16 9 3 13
10 10 15 -3 5 0 9 6 9 6 0 8 5 5 10 -3 6 -1 10 4 10 6 0 10 3 10 8 -4 21 2 32
13 26 8 -5 9 -2 5 9 -4 10 -2 16 6 14 7 -1 11 4 9 12 -2 8 3 18 10 22 7 5 13
14 13 21 1 7 6 12 13 11 12 -3 16 9 13 36 -2 7 1 11 6 8 9 -6 27 12 31 33 2 8
8 17 13 18 5 2 9 10 9 18 0 8 3 14 8 14 4 0 18 17 32 37 14 20 31 43 38 50 7
7 11 13 7 13 -3 0 5 11 19 24 15 13 26 28 26 34 0 6 9 16 20 22 11 6 18 15 15
19 -3 5 2 12 11 15 8 3 12 10 9 16 -3 5 -1 10 4 10 15 0 51 37 44 44 -4 3 1 6
10 6 9 0 16 3 15 8 -2 4 5 18 15 32 9 13 17 21 17 17 0 -4 6 -2 14 5 8 7 12
15 10 17 -2 2 11 17 29 34 18 16 31 34 30 39 -2 4 3 7 10 5 6 -1 11 3 10 10
-2 8 4 10 14 6 11 -4 14 -3 9 5 -4 7 -1 15 8 18 9 3 13 10 10 15 -3 5 -1 9 4
9 13 0 178 163 175 172 -2 5 1 7 5 5 5 -1 23 13 41 31 18 17 37 32 42 32 6 0
7 5 4 10 -3 6 -1 10 4 10 6 0 43 32 82 70 40 39 74 70 78 70 3 0 12 9 19 20 7
11 19 20 28 20 8 0 13 3 11 8 -6 9 19 33 26 26 3 -3 10 4 17 15 6 12 15 19 21
16 5 -4 9 1 9 10 0 9 3 14 8 12 10 -5 42 30 34 38 -4 3 2 3 12 -1 13 -5 17 -4
12 4 -3 6 3 13 14 17 11 4 18 10 15 15 -3 5 4 11 14 15 11 3 23 15 26 26 4 11
9 18 12 15 7 -7 33 19 33 33 0 6 4 10 8 8 4 -1 22 13 39 31 18 17 37 32 43 32
6 0 9 4 5 9 -3 6 4 15 15 21 11 6 18 15 15 21 -6 8 8 13 28 10 5 -1 6 3 3 8
-3 5 7 20 23 34 17 14 28 27 25 30 -3 3 4 8 15 12 12 3 21 12 21 18 0 6 17 27
38 46 20 19 30 30 22 26 -8 -5 4 10 28 33 27 25 41 46 36 53 -4 7 -3 9 4 5 11
-6 52 43 52 63 0 6 6 8 14 5 7 -3 16 3 20 13 12 35 28 56 90 126 14 15 23 27
20 27 -3 0 7 12 21 27 14 15 25 33 25 40 0 6 4 13 8 15 4 2 17 17 29 34 18 24
20 34 10 44 -10 10 -9 11 3 6 9 -5 8 -2 -2 7 -10 8 -18 19 -18 26 0 6 -7 11
-15 11 -14 0 -20 12 -16 33 1 5 -3 6 -9 2 -5 -3 -10 1 -10 9 0 9 -7 16 -15 16
-8 0 -15 4 -15 9 0 5 -13 23 -30 41 -16 18 -30 36 -30 41 0 5 -6 8 -12 7 -7
-2 -12 3 -10 10 1 6 -3 12 -9 12 -6 0 -22 14 -36 30 -13 17 -29 28 -34 25 -5
-4 -6 1 -3 9 4 10 1 16 -8 16 -7 0 -20 9 -28 20 -20 28 -36 25 -50 -9 -6 -16
-18 -32 -27 -35 -8 -3 -12 -10 -8 -15 3 -5 -3 -16 -13 -23 -11 -7 -20 -17 -21
-23 0 -5 -8 -18 -16 -28 -8 -9 -15 -21 -15 -25 0 -4 -9 -15 -20 -25 -12 -10
-18 -22 -15 -27 3 -5 -4 -11 -15 -15 -11 -4 -18 -10 -16 -14 3 -4 -8 -22 -24
-41 -16 -19 -27 -37 -24 -42 3 -4 0 -8 -5 -8 -12 0 -52 -37 -50 -46 3 -11 -25
-43 -33 -38 -4 3 -8 -2 -8 -11 0 -10 -5 -13 -12 -9 -6 4 -8 3 -4 -4 3 -5 -12
-29 -33 -51 -22 -23 -37 -41 -34 -41 3 0 -12 -16 -33 -35 -22 -19 -35 -35 -30
-35 5 0 -6 -10 -24 -22 -19 -13 -33 -26 -32 -30 1 -9 -71 -84 -79 -81 -3 1
-12 -9 -19 -22 -7 -13 -17 -22 -22 -19 -4 3 -8 -2 -8 -11 0 -9 -4 -14 -9 -10
-5 3 -12 -4 -16 -15 -4 -11 -10 -18 -15 -15 -5 3 -11 -4 -15 -14 -4 -13 -11
-18 -22 -14 -9 4 -14 2 -10 -3 5 -9 -5 -20 -68 -70 -11 -8 -14 -12 -6 -8 10 5
12 3 7 -5 -5 -7 -15 -10 -23 -7 -8 3 -11 2 -8 -3 3 -5 -4 -13 -16 -16 -11 -4
-18 -9 -15 -12 8 -9 -18 -31 -31 -26 -7 3 -13 -2 -13 -11 0 -9 -5 -16 -11 -16
-16 0 -39 -26 -31 -35 4 -5 2 -6 -4 -2 -5 3 -28 -11 -50 -31 -21 -20 -42 -35
-46 -34 -5 1 -8 -4 -8 -12 0 -8 -9 -18 -20 -21 -11 -4 -17 -11 -14 -17 5 -8 1
-9 -10 -5 -9 4 -15 3 -12 -2 3 -5 -8 -19 -24 -31 -16 -12 -27 -28 -23 -34 3
-6 3 -8 -1 -4 -5 4 -32 -17 -62 -46 -29 -30 -56 -51 -59 -48 -3 3 -5 -2 -5
-11 0 -9 -5 -19 -12 -23 -7 -5 -9 -2 -4 7 4 8 1 6 -6 -4 -7 -11 -31 -38 -53
-60 -22 -23 -38 -46 -37 -52 2 -5 1 -7 -3 -4 -7 8 -85 -67 -85 -81 0 -6 -7
-10 -16 -10 -8 0 -13 -4 -9 -9 3 -6 -4 -15 -15 -21 -11 -6 -18 -15 -15 -21 4
-5 1 -9 -5 -9 -6 0 -18 -7 -26 -15 -9 -8 -13 -15 -9 -15 3 0 -5 -10 -18 -22
-13 -13 -26 -31 -30 -41 -4 -10 -11 -16 -17 -12 -5 3 -12 -6 -16 -20 -4 -17
-11 -24 -21 -21 -8 3 -12 2 -9 -3 3 -4 -10 -24 -28 -44 -18 -20 -31 -39 -28
-42 3 -3 -1 -5 -8 -5 -7 0 -11 -3 -7 -6 3 -3 -8 -19 -25 -34 -17 -16 -28 -33
-24 -38 3 -5 -4 -12 -16 -15 -12 -4 -19 -9 -16 -12 4 -4 -1 -15 -10 -25 -59
-64 -70 -79 -59 -84 7 -2 4 -5 -6 -5 -10 -1 -16 -5 -13 -10 3 -5 -1 -14 -9
-21 -8 -7 -15 -19 -15 -28 0 -23 -12 -6 -14 20 -1 13 3 29 8 37 8 11 8 13 -1
7 -7 -4 -13 -2 -13 3 0 6 4 11 9 11 4 0 6 12 3 26 -3 16 -1 25 5 21 5 -3 10 0
10 8 0 8 -5 11 -11 8 -8 -5 -8 -3 0 8 6 8 10 26 9 42 -1 15 2 27 7 27 5 0 4
10 -3 21 -7 13 -7 19 -1 15 11 -7 13 2 13 67 0 20 3 37 7 37 4 0 8 12 9 28 4
79 7 101 12 98 3 -2 6 17 7 42 0 32 4 46 13 44 8 -1 10 2 5 10 -10 16 -6 56 8
82 7 13 7 16 -1 12 -12 -8 -15 6 -4 18 8 8 13 29 15 69 0 15 6 27 12 27 6 0 5
4 -3 9 -9 6 -10 11 -2 15 6 4 9 12 6 17 -4 5 0 9 7 9 9 0 9 3 -2 10 -9 6 -10
10 -3 10 7 0 10 9 8 21 -3 12 -1 27 3 33 8 13 11 30 14 78 2 21 6 38 9 38 3 0
6 14 7 31 0 17 7 38 14 47 9 12 10 14 1 8 -14 -8 -18 6 -6 18 8 8 13 29 15 68
0 15 4 25 8 23 4 -3 6 9 5 25 -1 17 2 30 7 30 6 0 5 7 -2 15 -10 12 -9 16 2
20 8 3 14 16 13 28 -1 12 5 28 14 35 9 8 11 11 5 8 -7 -3 -15 1 -18 10 -3 8
-2 12 4 9 9 -5 14 16 13 53 -1 6 3 12 8 12 5 0 8 3 8 8 -4 25 2 72 9 68 5 -3
9 1 9 9 0 8 -4 12 -8 9 -5 -2 -2 8 6 23 11 21 12 30 2 42 -9 11 -9 13 0 8 8
-5 14 7 18 38 4 25 12 45 19 45 6 0 4 5 -4 10 -8 5 -10 10 -5 10 10 0 15 17
18 63 1 9 5 17 9 17 4 0 5 10 3 22 -3 12 0 25 5 28 5 3 11 21 12 40 2 19 6 38
11 41 4 3 8 24 10 46 1 26 6 38 12 33 6 -5 10 5 9 28 -1 21 3 43 9 50 5 7 7
15 4 19 -4 3 -2 13 3 23 9 16 21 62 22 88 1 6 5 12 9 12 4 0 8 8 8 18 0 25 6
55 15 75 5 9 6 24 2 32 -3 8 0 14 6 12 7 -1 12 11 12 30 0 17 3 30 7 27 4 -2
9 3 13 11 3 8 1 15 -4 15 -10 0 -9 4 23 67 10 20 12 35 6 39 -6 4 -5 11 3 21
6 8 13 24 15 36 2 11 8 26 14 34 9 10 8 13 -1 13 -10 0 -9 5 2 18 9 9 14 25
13 35 -2 9 1 17 6 17 6 0 7 5 4 10 -3 6 -1 10 5 10 6 0 9 4 6 8 -3 5 2 28 11
53 8 24 17 55 20 69 2 13 8 27 12 30 14 10 11 60 -4 60 -8 0 -15 4 -15 8 0 5
-15 8 -34 7 -19 0 -32 3 -30 7 3 4 4 8 2 8 -54 7 -84 14 -88 21 -3 4 -25 10
-48 11 -23 2 -42 7 -42 12 0 5 -3 6 -7 3 -3 -4 -13 -1 -21 6 -13 10 -14 9 -7
-3 8 -13 6 -13 -8 -2 -9 8 -31 14 -49 16 -18 1 -39 5 -47 10 -9 6 -12 5 -8 -1
3 -5 0 -10 -8 -10 -8 0 -12 4 -9 9 3 4 -1 8 -9 8 -13 0 -24 -15 -28 -38 0 -4
-5 -13 -11 -19 -6 -7 -7 -13 -3 -13 4 0 1 -8 -6 -17 -12 -15 -12 -16 1 -8 11
6 10 3 -3 -12 -9 -11 -14 -22 -11 -26 3 -3 2 -12 -2 -19 -5 -7 -10 -19 -11
-25 -2 -7 -4 -19 -6 -25 -1 -7 -6 -19 -10 -25 -5 -7 -5 -17 -2 -23 3 -5 1 -10
-5 -10 -6 0 -9 -4 -5 -9 3 -5 1 -12 -4 -15 -4 -3 -8 -17 -8 -32 0 -14 -4 -29
-9 -33 -5 -3 -10 -11 -11 -18 -1 -6 -5 -26 -8 -45 -3 -18 -10 -34 -16 -36 -5
-2 -9 -8 -9 -13 0 -6 4 -8 10 -4 5 3 3 -7 -5 -21 -8 -15 -12 -31 -9 -36 3 -4
0 -8 -7 -8 -7 0 -9 -3 -6 -6 3 -4 2 -15 -4 -25 -7 -14 -6 -19 3 -19 9 0 9 -3
-2 -10 -8 -5 -15 -17 -15 -27 0 -10 -4 -23 -8 -30 -6 -10 -15 -50 -19 -90 -1
-7 -5 -13 -9 -13 -4 0 -6 -11 -5 -25 2 -13 -1 -22 -5 -19 -5 3 -9 -11 -9 -31
0 -20 -4 -34 -9 -31 -5 4 -8 -2 -6 -11 1 -10 -4 -33 -11 -51 -10 -24 -10 -31
-1 -25 8 4 7 1 -1 -10 -8 -9 -11 -21 -7 -27 3 -5 2 -10 -3 -10 -5 0 -9 -6 -10
-12 -5 -46 -12 -71 -24 -85 -11 -14 -11 -16 2 -8 12 7 13 6 4 -6 -6 -8 -10
-22 -9 -31 2 -9 -2 -19 -9 -21 -6 -3 -11 -23 -11 -46 0 -24 -5 -43 -12 -45 -7
-3 -10 -12 -7 -21 4 -8 0 -23 -7 -32 -12 -14 -12 -16 0 -9 9 6 12 5 9 -5 -3
-8 -11 -13 -17 -11 -9 2 -9 -3 -1 -17 7 -14 7 -22 -1 -26 -6 -4 -8 -13 -5 -21
3 -8 1 -14 -5 -14 -6 0 -7 -4 -4 -10 3 -5 1 -18 -4 -29 -8 -14 -8 -21 2 -24 9
-4 9 -6 -1 -6 -7 -1 -10 -5 -7 -11 3 -5 1 -10 -4 -10 -6 0 -10 -3 -9 -7 1 -7
-12 -106 -17 -123 -3 -9 -19 -85 -20 -90 0 -3 -4 -11 -8 -17 -5 -8 -3 -13 5
-13 10 0 10 -2 1 -8 -7 -4 -13 -22 -15 -40 -1 -18 -5 -32 -9 -32 -3 0 -5 -13
-4 -30 1 -16 -2 -30 -7 -30 -5 0 -6 -4 -3 -10 3 -5 1 -19 -6 -31 -9 -17 -8
-20 2 -14 8 6 10 4 3 -6 -10 -16 -14 -35 -16 -66 0 -13 -3 -21 -7 -19 -3 2 -7
-10 -7 -27 -2 -48 -14 -119 -25 -139 -6 -11 -5 -19 2 -24 8 -5 7 -9 -3 -15 -9
-5 -13 -23 -12 -58 2 -39 -1 -53 -14 -61 -11 -6 -12 -10 -4 -10 8 0 10 -5 5
-12 -4 -7 -8 -26 -9 -43 -3 -46 -3 -47 -16 -39 -10 6 -10 4 0 -7 14 -16 16
-33 2 -24 -6 4 -7 -2 -1 -18 6 -16 6 -28 -2 -36 -6 -6 -7 -11 -3 -11 5 0 0
-12 -9 -27 -16 -24 -16 -26 -1 -20 11 4 15 3 11 -4 -15 -24 -29 1 -33 57 -5
87 -6 94 -14 94 -4 0 -5 7 -2 15 3 8 3 19 -1 26 -7 11 -13 53 -18 131 -1 20
-5 34 -9 31 -7 -4 -11 26 -11 80 0 9 -3 17 -7 17 -5 0 -7 8 -6 18 2 9 -2 20
-8 24 -8 5 -7 8 2 8 9 0 10 5 3 19 -6 10 -7 21 -4 25 3 3 1 6 -7 6 -10 0 -10
3 -1 14 8 10 9 16 1 21 -6 3 -8 10 -5 15 3 5 1 11 -4 15 -6 3 -8 12 -5 19 3 8
1 17 -5 21 -8 4 -8 12 0 27 8 15 8 19 0 14 -10 -6 -17 29 -12 58 1 4 -2 13 -7
20 -5 6 -9 24 -10 40 -1 16 -7 35 -12 42 -8 8 -8 14 1 19 8 5 8 9 0 14 -6 4
-11 21 -13 39 -1 18 -6 32 -10 32 -4 0 -5 9 -3 19 4 24 -5 62 -14 57 -3 -2 -6
16 -6 41 1 24 -3 47 -7 49 -5 3 -6 10 -3 15 4 5 1 9 -6 9 -7 0 -10 3 -7 6 3 3
-1 33 -9 67 -8 34 -15 72 -15 84 0 13 -4 21 -8 18 -4 -2 -5 7 -2 20 2 14 0 25
-6 25 -6 0 -9 12 -7 26 1 14 -4 32 -12 40 -10 9 -11 14 -2 14 8 0 8 4 2 13 -6
6 -9 20 -7 30 1 11 -2 17 -10 14 -8 -3 -11 6 -8 29 2 19 0 34 -5 34 -5 0 -10
11 -11 25 -3 47 -5 55 -14 55 -4 0 -8 5 -8 11 0 5 4 8 10 4 5 -3 3 7 -5 21 -8
15 -12 31 -9 36 3 4 0 8 -7 8 -6 0 -9 8 -6 20 3 11 1 20 -3 20 -4 0 -6 9 -3
20 3 11 1 20 -4 20 -6 0 -9 10 -9 23 1 12 -1 27 -5 32 -5 6 -11 26 -14 45 -3
19 -11 37 -16 41 -6 3 -9 10 -8 15 4 24 -2 45 -12 38 -8 -4 -8 0 0 15 9 16 9
21 0 21 -6 0 -9 7 -6 15 4 8 2 17 -4 20 -5 4 -7 11 -4 16 4 5 2 9 -4 9 -6 0
-8 7 -5 15 4 8 2 15 -4 15 -6 0 -9 8 -7 18 1 9 -2 22 -7 29 -5 7 -6 18 -2 24
5 8 3 9 -6 4 -9 -6 -10 -2 -5 15 4 13 3 25 -3 29 -6 4 -13 20 -16 36 -3 17
-10 44 -15 62 -5 17 -7 34 -3 37 3 3 -2 6 -10 6 -10 0 -14 8 -13 25 2 14 -1
27 -6 31 -5 3 -9 16 -9 30 0 18 -4 23 -12 18 -10 -6 -10 -4 0 8 9 11 10 18 2
23 -5 3 -10 15 -10 26 0 11 -4 18 -9 15 -5 -3 -8 2 -7 11 1 12 -8 17 -31 18
-18 0 -33 -4 -33 -9z"/>
<path d="M2038 6092 c-16 -2 -28 -8 -28 -13 0 -6 -5 -7 -10 -4 -6 4 -18 1 -27
-7 -14 -11 -16 -11 -8 2 9 16 -29 -13 -53 -40 -12 -13 -13 -13 -6 0 4 8 -4 4
-18 -10 -13 -14 -25 -27 -25 -30 0 -3 -1 -11 -2 -18 0 -7 -6 -10 -12 -6 -7 4
-10 1 -7 -7 3 -8 -2 -20 -11 -27 -12 -10 -13 -12 -1 -6 12 6 13 5 4 -7 -6 -8
-10 -22 -9 -31 2 -10 -1 -18 -5 -18 -5 0 -7 -12 -4 -26 3 -14 1 -23 -4 -21 -4
3 -8 -3 -8 -14 0 -10 7 -19 16 -19 12 0 12 -2 1 -9 -10 -6 -10 -13 -2 -28 5
-11 8 -23 4 -26 -3 -4 0 -13 7 -22 10 -12 10 -15 0 -15 -9 0 -8 -6 4 -19 9
-10 18 -28 19 -40 1 -11 5 -21 9 -21 4 0 19 -17 32 -37 30 -47 66 -89 66 -77
0 5 5 2 10 -7 6 -10 26 -26 46 -38 19 -12 32 -15 28 -9 -4 7 2 5 13 -5 11 -9
23 -14 26 -10 4 3 7 1 7 -6 0 -8 6 -11 16 -7 9 4 23 1 30 -5 9 -8 14 -8 14 -1
0 7 10 8 30 2 18 -5 30 -5 30 1 0 5 5 9 11 9 5 0 7 -6 3 -12 -6 -10 -4 -10 7
0 7 6 21 12 30 12 9 0 22 7 29 15 6 8 15 13 18 12 10 -3 72 60 72 73 0 5 5 10
10 10 6 0 9 3 8 8 -1 4 3 16 9 27 6 11 12 25 13 30 1 6 7 9 13 7 6 -2 3 6 -8
18 -12 14 -14 19 -4 15 11 -4 14 6 13 55 -1 33 -5 68 -9 77 -4 10 -9 29 -11
42 -2 13 -9 28 -16 32 -7 5 -9 9 -4 9 5 0 3 6 -3 13 -6 8 -8 17 -4 20 3 4 0 7
-7 7 -7 0 -11 3 -7 6 7 7 -2 19 -60 79 -23 24 -39 46 -35 51 4 4 2 4 -5 0 -7
-4 -21 2 -32 13 -13 13 -21 16 -25 8 -2 -7 -5 -4 -5 6 -1 10 -5 16 -10 12 -5
-3 -13 0 -16 6 -4 5 -13 8 -21 5 -8 -3 -14 -1 -14 3 0 5 -8 8 -17 7 -10 -2
-29 0 -43 3 -14 4 -37 5 -52 3z"/>
<path d="M4900 6092 c0 -7 -4 -11 -9 -8 -5 4 -22 1 -38 -5 -15 -6 -37 -13 -47
-15 -11 -2 -23 -9 -28 -16 -4 -7 -8 -9 -8 -5 0 5 -7 1 -16 -7 -8 -9 -23 -16
-32 -16 -13 0 -14 -2 -3 -9 9 -6 10 -11 2 -15 -6 -4 -11 -5 -11 -2 0 3 -13 -7
-29 -22 -15 -15 -26 -30 -24 -34 2 -5 -1 -8 -6 -8 -6 0 -11 -7 -11 -16 0 -9
-5 -12 -12 -8 -8 5 -9 2 -5 -9 4 -11 1 -17 -7 -17 -8 0 -12 -9 -11 -25 2 -14
-2 -25 -9 -25 -7 0 -12 -12 -12 -27 1 -18 -4 -27 -12 -25 -10 2 -10 -2 -3 -17
6 -10 8 -21 5 -24 -12 -12 -4 -114 11 -150 8 -20 13 -37 10 -37 -7 0 23 -36
60 -73 17 -16 29 -33 28 -37 -1 -4 11 -6 27 -5 17 1 28 -2 27 -9 -1 -6 3 -10
10 -9 7 2 24 -2 38 -7 17 -7 25 -6 25 1 0 8 5 7 15 -1 12 -10 15 -10 15 1 0
12 2 12 9 0 6 -10 10 -10 16 -1 4 6 14 9 22 6 9 -4 22 2 30 11 8 10 12 12 8 6
-3 -7 -1 -13 4 -13 6 0 11 5 11 11 0 5 4 8 9 4 6 -3 14 3 20 12 5 10 12 17 15
16 14 -7 37 -2 32 6 -3 5 7 17 22 27 32 21 38 27 74 75 15 20 24 39 21 43 -4
3 -1 6 6 6 7 0 10 4 6 9 -3 5 0 13 6 16 5 4 8 13 5 21 -3 7 0 17 7 21 7 5 13
16 14 26 0 9 1 29 2 43 1 17 5 23 14 18 10 -6 10 -4 0 7 -15 15 -18 33 -5 25
5 -3 8 4 7 15 -1 11 -8 25 -16 30 -11 7 -11 9 -1 9 7 0 10 5 7 10 -4 6 -9 22
-11 36 -3 15 -11 33 -19 41 -9 8 -13 19 -10 24 4 5 1 9 -4 9 -6 0 -11 7 -11
15 0 8 -5 15 -11 15 -5 0 -7 5 -3 12 4 7 3 8 -4 4 -7 -4 -22 4 -34 17 -13 13
-29 22 -35 20 -7 -3 -13 0 -13 7 0 6 -4 8 -10 5 -5 -3 -10 -1 -10 6 0 10 -3
10 -12 1 -9 -9 -14 -7 -24 6 -11 14 -13 14 -14 2 0 -13 -1 -13 -10 0 -9 13
-10 13 -10 0 0 -13 -1 -13 -10 0 -9 13 -10 13 -10 0 0 -13 -1 -13 -10 0 -7 11
-10 11 -10 2z"/>
<path d="M263 4927 c-15 -18 -26 -50 -24 -64 1 -7 -3 -13 -9 -13 -5 0 -9 -3
-8 -7 0 -5 -2 -17 -6 -28 -5 -11 -10 -27 -14 -35 -3 -8 -4 -18 -4 -22 1 -5 -3
-8 -10 -8 -6 0 -9 -3 -6 -6 4 -3 0 -21 -8 -40 -8 -19 -11 -34 -7 -34 5 0 2 -4
-4 -8 -7 -5 -14 -20 -15 -35 -1 -15 -7 -26 -13 -23 -7 2 -9 -9 -7 -30 2 -19 0
-34 -5 -34 -13 0 -14 -41 0 -54 7 -7 23 -12 37 -12 16 0 24 -5 22 -14 -3 -11
0 -11 12 0 10 8 16 9 16 2 0 -7 7 -9 17 -5 10 4 14 2 9 -5 -4 -7 1 -10 14 -7
11 2 20 0 20 -6 0 -5 3 -8 8 -8 17 3 71 -14 67 -21 -3 -4 1 -8 8 -7 31 1 48
-4 43 -12 -4 -5 3 -7 14 -4 12 3 20 0 20 -6 0 -7 5 -9 10 -6 6 3 10 1 10 -6 0
-7 3 -10 6 -6 4 3 19 0 34 -8 15 -8 30 -11 34 -8 3 4 6 1 6 -5 0 -7 9 -12 20
-12 11 0 20 -4 20 -10 0 -5 12 -10 26 -10 14 0 23 -4 19 -10 -3 -5 1 -10 9
-10 8 0 31 -9 50 -21 19 -11 41 -17 47 -13 7 4 9 3 6 -2 -3 -6 3 -16 15 -23
16 -10 19 -10 13 1 -3 7 0 5 8 -4 8 -10 19 -18 26 -18 6 0 11 -4 11 -10 0 -5
3 -9 8 -8 14 3 61 -25 56 -33 -3 -5 2 -6 10 -3 9 3 16 2 16 -4 0 -5 11 -13 25
-16 14 -4 25 -11 25 -16 0 -6 5 -10 10 -10 6 0 20 -9 32 -20 12 -11 28 -20 35
-20 7 0 13 -4 13 -10 0 -5 7 -10 15 -10 8 0 15 -5 15 -11 0 -6 7 -8 16 -5 8 3
12 2 9 -3 -7 -12 35 -42 48 -34 6 3 7 1 3 -6 -4 -6 0 -14 11 -18 10 -4 26 -15
36 -26 9 -11 17 -16 17 -11 0 5 5 1 11 -8 5 -10 17 -18 24 -18 8 0 15 -7 15
-17 0 -9 3 -14 6 -10 3 3 17 -5 31 -19 13 -13 28 -24 33 -24 6 0 10 -7 10 -15
0 -8 4 -14 8 -12 4 1 19 -9 33 -23 14 -14 37 -34 52 -45 15 -11 27 -26 27 -33
0 -7 3 -11 8 -9 9 4 52 -40 44 -47 -3 -3 2 -6 12 -6 9 0 14 -4 11 -10 -3 -5 1
-10 10 -10 9 0 13 -4 10 -10 -3 -5 1 -10 9 -10 9 0 16 -6 16 -13 0 -7 10 -23
23 -34 12 -11 34 -34 48 -51 15 -17 30 -28 34 -24 5 4 5 2 2 -4 -3 -6 7 -25
23 -43 17 -18 30 -39 30 -47 0 -8 4 -13 8 -10 5 3 15 -6 22 -19 7 -13 18 -22
23 -18 6 3 7 1 3 -5 -3 -6 0 -16 7 -24 7 -7 22 -27 32 -45 10 -18 22 -30 27
-27 4 3 11 -8 14 -23 4 -15 14 -35 23 -43 9 -8 17 -22 19 -30 2 -8 11 -22 21
-30 10 -9 17 -23 15 -33 -1 -9 1 -16 4 -16 20 3 25 -2 12 -11 -13 -8 -12 -10
4 -10 12 0 16 -5 12 -16 -3 -8 -2 -12 4 -9 6 3 10 -1 10 -10 0 -8 6 -18 14
-21 8 -3 13 -14 11 -25 -2 -10 0 -19 4 -19 5 0 14 -13 21 -30 7 -16 17 -30 22
-30 5 0 6 -4 3 -10 -3 -5 -1 -10 6 -10 7 0 10 -3 6 -6 -3 -4 1 -20 9 -36 8
-16 12 -33 9 -39 -4 -5 -1 -8 6 -7 7 2 17 -13 23 -32 5 -19 13 -37 18 -40 4
-3 9 -17 11 -30 2 -13 9 -26 15 -28 6 -2 8 -10 5 -18 -3 -8 0 -14 6 -14 6 0 8
-7 5 -15 -4 -8 -1 -15 5 -15 6 0 10 -3 10 -7 -3 -17 14 -73 22 -73 5 0 9 -11
9 -23 0 -13 3 -27 7 -31 14 -14 12 -38 -4 -32 -8 3 -17 6 -19 6 -3 0 -2 5 1
10 3 6 0 10 -7 10 -7 0 -19 9 -26 20 -7 12 -17 18 -21 15 -5 -2 -11 2 -15 10
-3 8 -10 15 -16 15 -10 0 -22 8 -55 38 -8 7 -15 10 -15 6 0 -4 -8 3 -19 14
-10 12 -21 19 -25 15 -3 -3 -6 -1 -6 6 0 7 -5 9 -10 6 -6 -3 -10 1 -10 9 0 9
-7 13 -20 11 -13 -2 -20 2 -20 11 0 8 -4 13 -9 9 -5 -3 -16 2 -25 11 -9 8 -20
12 -26 9 -5 -3 -10 -1 -10 4 0 6 -7 11 -15 11 -8 0 -15 5 -15 10 0 6 -9 10
-20 10 -11 0 -20 5 -20 10 0 6 -9 10 -19 10 -11 0 -23 5 -26 10 -4 6 -10 8
-15 5 -4 -3 -13 2 -20 10 -6 7 -17 12 -24 9 -8 -3 -20 1 -27 8 -14 12 -22 15
-63 24 -10 2 -23 7 -30 11 -6 5 -20 8 -31 8 -11 0 -22 2 -25 6 -3 4 -19 9 -35
11 -17 2 -41 10 -54 17 -14 8 -21 9 -17 2 8 -12 -7 -15 -18 -3 -4 4 -22 7 -39
8 -18 1 -40 5 -50 9 -10 4 -47 8 -83 9 -44 1 -65 5 -69 15 -4 11 -8 11 -20 1
-8 -7 -15 -9 -15 -5 0 4 -8 1 -17 -6 -15 -12 -16 -12 -11 2 5 13 2 16 -13 12
-10 -3 -17 -8 -15 -12 2 -3 -6 -6 -19 -6 -13 0 -21 3 -18 8 5 9 -27 4 -44 -6
-6 -4 -15 -2 -19 4 -4 8 -9 7 -15 -2 -6 -10 -9 -10 -9 -2 0 9 -7 10 -22 5 -13
-5 -51 -8 -85 -8 -34 1 -61 -3 -60 -8 1 -5 -9 -10 -23 -11 -47 -2 -115 -17
-129 -29 -11 -8 -13 -8 -7 2 4 6 2 12 -3 12 -6 0 -11 -8 -12 -17 0 -11 -3 -13
-6 -6 -3 10 -12 9 -39 -2 -19 -8 -34 -11 -34 -8 0 3 -6 0 -13 -6 -8 -6 -17 -8
-20 -4 -4 3 -7 2 -7 -4 0 -5 -7 -10 -15 -11 -8 -1 -22 -3 -30 -4 -8 -1 -15 -6
-15 -11 0 -6 -3 -7 -7 -4 -3 4 -12 2 -19 -4 -8 -6 -21 -9 -29 -5 -11 4 -14 2
-9 -6 5 -8 2 -9 -10 -5 -10 4 -15 3 -11 -3 3 -6 -3 -10 -15 -10 -12 0 -18 -4
-15 -10 3 -6 -1 -7 -9 -4 -9 3 -16 1 -16 -5 0 -6 -3 -10 -7 -9 -12 3 -93 -36
-93 -44 0 -5 -6 -8 -14 -8 -8 0 -16 -7 -20 -15 -3 -8 -15 -15 -26 -15 -11 0
-20 -3 -21 -7 0 -5 -2 -16 -4 -25 -2 -10 0 -18 5 -18 4 0 6 -8 3 -19 -3 -10 0
-22 6 -25 6 -4 11 -16 11 -27 0 -10 3 -19 8 -19 4 0 8 -14 9 -32 1 -17 7 -35
14 -38 6 -4 10 -11 9 -16 -1 -8 7 -36 15 -54 1 -3 5 -13 9 -22 4 -9 9 -25 11
-35 1 -10 7 -17 12 -16 5 1 10 -5 10 -13 0 -7 -5 -14 -11 -14 -6 0 -4 -5 4
-10 8 -5 11 -10 5 -10 -5 0 -3 -5 5 -10 8 -5 15 -13 16 -17 2 -22 18 -43 32
-43 8 0 12 3 9 7 -4 4 10 15 30 24 21 10 34 18 28 19 -11 0 106 65 147 81 16
6 28 15 28 20 0 4 7 6 15 3 8 -4 15 -1 15 5 0 6 14 11 31 11 17 0 28 4 24 10
-5 9 23 15 48 11 4 0 7 3 7 9 0 5 7 7 15 4 8 -4 15 -1 15 4 0 6 9 9 20 7 11
-2 20 0 20 5 0 4 11 7 25 5 14 -1 28 2 31 7 3 5 12 7 20 4 8 -3 14 -2 14 3 0
4 18 7 40 6 30 -1 40 2 41 14 0 11 2 12 6 4 2 -7 11 -13 19 -13 8 0 14 6 14
13 0 7 3 8 8 2 9 -13 52 -15 52 -2 0 5 7 4 15 -3 8 -7 15 -8 15 -3 0 12 120 5
136 -8 8 -7 15 -6 20 2 5 8 3 9 -6 4 -9 -5 -11 -4 -6 4 6 9 11 9 22 0 8 -6 14
-8 14 -4 0 4 6 3 13 -2 6 -5 19 -9 27 -8 8 1 23 -3 34 -8 13 -6 16 -6 12 2
-10 16 0 13 18 -5 9 -9 16 -11 16 -4 0 6 5 8 13 3 13 -8 18 -10 43 -12 8 0 12
-5 9 -11 -3 -6 1 -7 10 -4 8 4 21 1 29 -5 7 -6 16 -8 19 -4 4 3 14 0 24 -8 15
-12 16 -12 8 1 -5 9 0 8 13 -4 12 -11 22 -16 22 -12 0 3 13 0 29 -8 16 -9 31
-12 35 -9 3 4 6 1 6 -5 0 -7 9 -12 20 -12 11 0 20 -4 20 -10 0 -5 7 -10 15
-10 8 0 15 -5 15 -10 0 -6 3 -9 8 -9 22 4 42 -2 37 -11 -5 -9 16 -15 38 -11 5
1 6 -3 2 -9 -3 -5 1 -10 9 -10 9 0 16 -4 16 -10 0 -5 7 -10 15 -10 8 0 15 -4
15 -10 0 -5 7 -10 15 -10 8 0 15 -5 15 -11 0 -5 5 -7 10 -4 6 3 10 -1 10 -9 0
-9 5 -16 11 -16 15 0 75 -51 72 -61 -2 -5 8 -11 22 -15 14 -3 23 -9 21 -13 -5
-9 41 -51 48 -44 3 4 6 -1 6 -9 0 -9 7 -19 16 -22 9 -4 14 -9 11 -12 -3 -3 6
-18 21 -33 15 -15 34 -38 42 -50 8 -13 20 -29 27 -36 7 -7 9 -15 6 -19 -4 -3
1 -6 10 -6 10 0 14 -5 11 -15 -4 -8 1 -17 10 -21 9 -3 14 -10 11 -14 -3 -5 2
-15 11 -24 8 -9 12 -21 8 -27 -4 -7 -3 -9 2 -6 6 3 16 -3 23 -15 7 -11 8 -17
3 -14 -6 3 -5 -5 1 -19 7 -14 15 -25 20 -25 4 0 7 -6 7 -14 0 -7 9 -35 21 -61
11 -25 18 -49 15 -53 -3 -3 2 -14 11 -25 13 -15 14 -18 3 -12 -12 7 -13 6 -3
-6 6 -8 12 -18 13 -24 2 -5 5 -16 7 -23 3 -7 3 -21 0 -32 -3 -11 -1 -20 5 -20
6 0 8 -7 5 -15 -4 -8 -1 -17 5 -21 7 -4 6 -9 -3 -15 -11 -7 -11 -11 -1 -17 7
-5 10 -22 8 -40 -2 -17 0 -30 4 -27 9 6 5 -59 -5 -75 -5 -8 -1 -18 10 -27 13
-8 14 -13 5 -13 -7 0 -11 -3 -7 -6 3 -3 2 -17 -3 -30 -6 -14 -6 -26 0 -29 6
-4 7 -14 2 -23 -5 -9 -8 -32 -8 -49 1 -18 -3 -33 -7 -33 -5 0 -5 -5 -2 -10 4
-6 1 -17 -5 -25 -8 -9 -8 -15 -2 -15 5 0 8 -9 5 -20 -3 -11 -10 -17 -17 -13
-6 4 -5 -1 3 -10 8 -10 9 -17 3 -17 -6 0 -9 -8 -8 -18 2 -9 -1 -28 -7 -42 -9
-23 -13 -40 -19 -92 -1 -10 -6 -18 -11 -18 -4 0 -5 -4 -2 -10 3 -5 0 -10 -7
-10 -9 0 -9 -3 2 -10 11 -7 11 -10 2 -10 -7 0 -11 -4 -7 -9 3 -5 1 -12 -4 -16
-5 -3 -8 -14 -6 -25 2 -12 0 -18 -6 -15 -5 4 -9 -5 -9 -19 0 -14 -5 -28 -11
-31 -5 -4 -8 -12 -6 -18 2 -7 -3 -21 -12 -31 -13 -16 -13 -18 -1 -11 12 7 13
6 3 -7 -7 -8 -10 -18 -6 -21 3 -4 1 -7 -6 -7 -7 0 -10 -4 -6 -9 3 -5 1 -12 -5
-16 -6 -4 -8 -11 -5 -16 4 -5 2 -9 -4 -9 -6 0 -8 -7 -5 -15 4 -8 2 -15 -4 -15
-5 0 -12 -11 -14 -25 -5 -23 2 -30 25 -26 4 0 7 -4 7 -10 0 -5 5 -7 10 -4 6 3
10 1 10 -5 0 -7 7 -10 15 -6 8 3 15 1 15 -5 0 -6 5 -7 10 -4 6 3 10 1 10 -5 0
-6 5 -8 10 -5 6 3 10 2 10 -3 0 -5 10 -8 23 -8 12 1 21 -4 20 -11 -2 -7 4 -10
12 -7 8 4 26 -1 40 -10 16 -11 25 -12 25 -5 0 8 4 9 13 0 8 -6 17 -8 20 -4 4
3 7 1 7 -5 0 -7 8 -12 18 -12 10 0 22 -3 25 -7 4 -3 21 -8 37 -10 17 -1 43
-11 57 -20 15 -10 24 -12 20 -5 -5 7 -3 12 3 12 6 0 8 5 5 10 -3 6 1 10 9 10
10 0 13 6 9 17 -4 9 -2 14 3 11 5 -4 10 8 11 25 1 17 8 34 14 38 6 4 8 12 5
18 -4 6 -3 11 3 11 6 0 8 7 5 15 -4 8 -1 15 6 15 8 0 11 9 8 25 -3 13 -1 22 3
19 5 -3 10 0 10 5 3 26 4 30 11 36 4 4 4 14 1 23 -4 9 -2 13 4 9 6 -4 9 3 7
18 -1 14 2 25 7 25 6 0 7 4 4 10 -3 5 -2 10 3 10 5 0 9 8 9 17 0 39 3 54 11
49 4 -3 7 8 6 25 -1 16 3 29 8 29 6 0 8 9 5 20 -3 11 -1 22 3 25 5 3 7 16 6
30 -2 13 1 22 6 19 5 -4 8 2 7 12 -2 11 0 25 4 32 5 6 6 12 4 12 -3 0 1 28 8
62 8 34 11 66 9 70 -3 4 -1 8 3 8 5 0 8 14 7 30 -1 17 2 33 7 36 5 3 9 10 9
15 0 6 -5 7 -12 3 -7 -5 -8 -3 -2 7 11 18 16 44 17 94 1 22 6 44 12 48 7 6 6
10 -2 13 -7 3 -9 12 -6 20 3 7 10 11 17 7 6 -4 4 2 -4 12 -12 14 -12 19 -2 23
10 3 10 7 1 18 -6 8 -8 14 -3 14 5 0 9 34 8 75 0 42 3 78 8 81 5 3 5 10 2 16
-11 17 -12 88 -2 94 4 3 5 11 1 17 -4 7 -8 44 -9 82 -4 132 -9 205 -16 205 -3
0 -5 15 -3 33 1 17 -1 57 -6 87 -5 30 -11 73 -13 95 -2 22 -7 48 -11 58 -4 10
-5 21 -1 24 3 3 1 12 -5 20 -6 7 -8 13 -4 13 4 0 1 8 -6 17 -12 14 -12 15 -1
9 11 -7 12 -4 3 11 -6 11 -7 23 -4 27 3 3 0 6 -8 6 -11 0 -11 2 1 10 9 6 11
10 3 10 -7 0 -10 7 -6 17 4 10 2 14 -4 10 -7 -5 -9 0 -6 13 3 13 0 20 -8 20
-11 0 -11 2 1 10 12 7 12 10 1 10 -7 0 -11 6 -8 14 3 7 0 19 -6 26 -9 10 -9
11 2 5 10 -6 12 -4 5 6 -4 8 -9 20 -11 28 -1 8 -5 17 -10 20 -4 3 -8 20 -9 36
0 17 -6 29 -12 28 -6 -2 -9 4 -6 12 4 9 0 23 -7 32 -12 14 -12 15 -1 9 12 -7
12 -4 1 15 -7 13 -12 27 -11 32 1 4 -3 7 -9 7 -8 0 -8 5 1 15 7 8 9 15 4 15
-5 0 -14 11 -21 25 -6 14 -7 23 -3 20 4 -3 3 6 -3 20 -7 14 -16 25 -20 25 -5
0 -6 4 -3 9 4 5 1 22 -6 38 -6 15 -12 30 -13 33 -1 3 -9 23 -18 45 -10 22 -17
45 -18 50 0 6 -7 14 -15 18 -8 5 -12 13 -8 18 3 5 0 16 -6 24 -7 8 -9 15 -4
15 5 0 3 4 -4 9 -7 4 -14 18 -15 29 -1 12 -4 22 -8 22 -4 0 -10 14 -14 30 -4
17 -11 30 -16 30 -6 0 -7 5 -4 10 3 6 3 10 -2 10 -4 0 -19 25 -33 55 -14 30
-28 55 -32 55 -5 0 -8 9 -8 20 0 11 -3 20 -8 20 -4 0 -13 15 -21 33 -8 17 -25
46 -38 63 -13 17 -23 36 -23 41 0 6 -7 16 -15 23 -8 7 -15 21 -15 31 0 11 -3
18 -7 17 -5 -2 -9 1 -10 6 0 5 -8 13 -17 18 -9 5 -14 13 -11 19 4 5 1 9 -4 9
-6 0 -11 5 -11 10 0 6 -9 20 -20 32 -11 12 -20 28 -20 35 0 7 -5 13 -11 13 -5
0 -7 5 -4 10 3 6 -1 10 -10 10 -9 0 -14 4 -11 9 3 5 -5 17 -19 27 -13 10 -22
21 -20 24 2 4 -9 21 -25 38 -16 18 -27 32 -25 32 2 0 -6 10 -18 23 -43 45 -65
75 -60 81 4 3 -1 6 -10 6 -9 0 -19 5 -23 12 -5 7 -2 8 7 3 8 -4 -7 13 -33 38
-27 26 -48 51 -48 57 0 5 -7 10 -15 10 -8 0 -15 4 -15 9 0 14 -96 111 -111
111 -7 0 -10 3 -6 6 7 8 -64 70 -76 66 -4 -1 -6 2 -2 8 3 5 1 10 -4 10 -6 0
-11 7 -11 15 0 9 -6 12 -15 9 -10 -4 -15 0 -15 12 0 9 -3 15 -6 12 -3 -3 -18
6 -33 20 -39 38 -84 72 -94 72 -4 0 -5 5 -2 10 3 6 0 10 -7 10 -8 0 -28 13
-46 29 -17 17 -32 27 -32 23 -1 -4 -9 3 -19 15 -10 12 -21 19 -25 16 -3 -4 -6
-1 -6 6 0 7 -4 10 -9 7 -5 -3 -12 1 -15 10 -3 8 -10 12 -16 9 -5 -3 -10 -1
-10 5 0 6 -5 8 -10 5 -6 -4 -9 -1 -8 7 2 7 -3 12 -9 11 -7 -2 -13 1 -13 6 0 5
-9 13 -20 16 -11 4 -17 11 -14 17 5 7 2 8 -5 4 -7 -5 -19 0 -27 10 -9 11 -13
13 -9 4 3 -8 -2 -5 -11 8 -9 12 -25 22 -35 22 -11 0 -19 5 -19 10 0 6 -6 10
-13 10 -7 0 -23 9 -35 20 -12 11 -28 20 -37 20 -8 0 -15 3 -15 8 0 4 -13 13
-30 20 -16 7 -45 24 -65 38 -20 13 -33 19 -29 12 5 -7 -9 0 -31 16 -21 16 -35
23 -30 16 5 -8 -5 -4 -22 8 -17 12 -38 22 -47 22 -9 0 -16 4 -16 9 0 5 -7 12
-16 15 -8 3 -12 2 -9 -4 9 -15 -2 -12 -19 6 -9 9 -22 17 -29 18 -6 2 -21 6
-32 11 -57 22 -75 31 -75 37 0 5 -3 7 -7 7 -23 -4 -54 2 -49 9 4 7 -10 11 -51
14 -7 1 -20 9 -29 19 -12 14 -22 16 -40 9 -17 -7 -23 -6 -21 2 1 7 -6 12 -16
13 -10 0 -22 7 -27 15 -7 11 -10 11 -10 2 0 -8 -5 -10 -12 -5 -22 13 -45 13
-55 0z"/>
<path d="M6669 4924 c-5 -7 -19 -9 -31 -6 -15 4 -19 2 -13 -8 5 -8 3 -11 -6
-8 -8 3 -28 -1 -45 -8 -17 -7 -34 -10 -38 -7 -3 4 -6 1 -6 -5 0 -6 -16 -14
-35 -18 -20 -4 -32 -10 -28 -17 3 -6 1 -7 -5 -3 -6 4 -25 0 -42 -9 -16 -8 -30
-12 -30 -9 0 4 -8 0 -18 -9 -10 -10 -21 -14 -25 -11 -3 3 -19 -3 -35 -15 -17
-12 -37 -21 -45 -21 -9 0 -19 -5 -22 -11 -4 -6 -14 -8 -22 -5 -8 3 -11 1 -8
-4 3 -6 1 -10 -4 -10 -22 0 -26 -2 -43 -17 -10 -9 -18 -12 -18 -7 0 5 -4 3 -9
-4 -4 -7 -17 -14 -29 -15 -11 0 -18 -5 -16 -9 3 -4 -4 -8 -16 -8 -14 0 -19 -4
-14 -12 5 -8 2 -9 -9 -5 -10 3 -17 2 -17 -4 0 -6 -4 -7 -10 -4 -5 3 -10 1 -10
-6 0 -7 -3 -10 -6 -6 -3 3 -15 -3 -27 -13 -11 -11 -24 -17 -29 -14 -4 3 -8 0
-8 -6 0 -6 -4 -9 -9 -6 -5 3 -12 -1 -15 -10 -3 -8 -10 -13 -14 -10 -5 3 -20
-6 -35 -20 -15 -14 -27 -20 -27 -14 0 6 -5 8 -10 5 -6 -4 -8 -11 -5 -16 4 -5
-1 -9 -9 -9 -8 0 -22 -7 -30 -16 -9 -8 -16 -12 -16 -7 0 4 -4 4 -8 -2 -4 -5
-20 -21 -37 -35 -22 -19 -26 -20 -15 -5 11 15 7 14 -15 -5 -17 -14 -34 -31
-38 -38 -5 -7 -12 -10 -18 -7 -5 4 -9 1 -9 -6 0 -7 -3 -10 -6 -7 -3 4 -14 -1
-23 -10 -38 -36 -72 -62 -81 -62 -6 0 -10 -5 -10 -11 0 -5 -4 -8 -9 -4 -5 3
-12 -4 -16 -15 -3 -11 -12 -19 -18 -17 -7 1 -11 -4 -9 -11 1 -8 -2 -11 -7 -8
-5 4 -18 -4 -28 -17 -10 -13 -24 -22 -31 -19 -6 2 -12 -3 -12 -12 0 -9 -4 -16
-10 -16 -5 0 -25 -16 -45 -37 -19 -20 -35 -33 -35 -30 0 4 -10 -4 -23 -16 -13
-12 -22 -24 -21 -27 1 -3 -4 -11 -12 -18 -8 -7 -14 -10 -14 -7 0 3 -18 -12
-40 -34 -22 -22 -40 -45 -40 -51 0 -6 -4 -8 -10 -5 -5 3 -10 2 -10 -3 0 -5
-19 -29 -42 -53 -24 -24 -42 -47 -40 -51 1 -5 -5 -8 -13 -8 -9 0 -19 -8 -22
-17 -4 -10 -18 -30 -32 -45 -36 -37 -61 -70 -61 -81 0 -4 -4 -5 -10 -2 -5 3
-10 -3 -10 -14 0 -12 -3 -20 -7 -19 -5 2 -8 1 -8 -2 0 -5 -13 -21 -42 -55 -7
-7 -13 -19 -13 -25 0 -6 -4 -8 -10 -5 -5 3 -10 0 -10 -8 0 -8 -9 -22 -20 -32
-10 -9 -18 -22 -17 -29 1 -6 -3 -10 -10 -9 -8 2 -10 -4 -6 -14 4 -11 3 -14 -5
-9 -7 4 -12 2 -12 -3 0 -19 -3 -26 -26 -50 -12 -13 -20 -31 -16 -39 3 -8 1
-13 -4 -10 -10 7 -27 -11 -32 -32 -2 -8 -8 -17 -13 -18 -5 -2 -7 -8 -3 -13 3
-5 0 -9 -5 -9 -6 0 -11 -5 -11 -12 0 -6 -10 -23 -22 -36 -13 -14 -16 -22 -8
-18 12 6 12 5 -1 -6 -9 -7 -14 -19 -11 -27 3 -8 0 -11 -6 -7 -6 3 -13 -7 -17
-24 -4 -17 -11 -28 -16 -24 -5 3 -10 -2 -10 -10 -3 -33 -4 -37 -19 -46 -8 -5
-11 -10 -6 -10 4 0 1 -11 -8 -25 -9 -14 -13 -25 -9 -25 4 0 -2 -7 -13 -15 -10
-8 -15 -15 -10 -15 4 0 2 -10 -6 -22 -8 -13 -14 -31 -12 -40 1 -12 -3 -15 -14
-11 -10 4 -14 3 -10 -2 4 -4 3 -14 -3 -22 -6 -7 -9 -13 -5 -13 3 0 -5 -25 -19
-55 -13 -30 -21 -55 -17 -55 4 0 0 -6 -8 -13 -8 -7 -17 -21 -18 -32 -2 -11
-10 -31 -17 -46 -8 -14 -15 -39 -17 -55 -2 -16 -9 -35 -16 -42 -7 -8 -10 -18
-6 -23 3 -6 0 -16 -6 -24 -6 -8 -9 -18 -6 -24 3 -5 1 -11 -5 -13 -5 -2 -12
-15 -14 -28 -6 -37 -10 -54 -16 -65 -4 -5 -5 -20 -4 -32 1 -12 -1 -20 -5 -18
-4 2 -12 -7 -18 -20 -8 -16 -8 -26 -1 -31 7 -4 4 -13 -6 -24 -11 -12 -13 -20
-5 -25 8 -5 8 -11 -1 -21 -6 -8 -8 -14 -3 -14 4 0 -1 -7 -12 -16 -10 -8 -13
-12 -5 -8 11 6 13 3 6 -12 -4 -10 -8 -29 -8 -41 -1 -13 -6 -23 -11 -23 -6 0
-4 -5 4 -10 10 -6 11 -10 3 -10 -7 0 -13 -12 -13 -28 0 -15 -6 -34 -12 -41
-11 -11 -10 -12 1 -6 11 6 13 4 7 -11 -5 -10 -9 -30 -10 -44 -1 -14 -5 -30 -9
-37 -4 -6 -1 -14 5 -16 10 -4 10 -6 0 -6 -7 -1 -10 -5 -7 -11 3 -5 0 -10 -7
-10 -9 0 -9 -3 2 -10 8 -5 10 -10 5 -10 -6 0 -10 -15 -10 -32 1 -18 -2 -43 -6
-55 -5 -14 -4 -23 4 -26 9 -3 9 -7 1 -18 -6 -8 -12 -43 -14 -79 -6 -136 -5
-417 1 -455 4 -24 3 -42 -3 -46 -6 -4 -5 -8 3 -11 12 -4 12 -7 0 -22 -12 -14
-12 -16 3 -10 14 5 15 3 7 -19 -5 -14 -7 -27 -4 -30 2 -3 6 -20 8 -39 5 -43
12 -76 20 -88 3 -6 1 -10 -5 -10 -6 0 -8 -5 -3 -13 4 -6 8 -24 8 -39 0 -15 5
-31 9 -35 5 -5 6 -2 1 6 -6 10 -4 12 5 6 10 -6 9 -11 -4 -21 -9 -6 -12 -14 -7
-15 6 -2 13 -22 16 -44 8 -62 10 -69 19 -84 6 -10 5 -12 -2 -7 -8 5 -10 2 -6
-8 3 -9 9 -14 13 -12 3 2 6 -6 6 -17 1 -12 5 -33 9 -46 6 -18 5 -22 -5 -16 -9
5 -8 1 2 -11 9 -10 14 -24 12 -31 -2 -6 1 -14 6 -18 6 -3 11 -19 11 -36 0 -16
4 -29 8 -29 4 0 8 -8 9 -17 3 -41 8 -63 13 -63 4 0 7 -7 8 -15 1 -8 3 -22 4
-30 1 -8 5 -15 10 -15 5 0 6 -4 3 -10 -3 -5 0 -10 7 -10 11 0 10 -2 0 -9 -11
-7 -11 -9 2 -14 9 -4 13 -13 10 -21 -3 -8 -1 -17 5 -20 6 -4 8 -13 4 -21 -3
-8 0 -15 6 -15 6 0 11 -9 11 -19 0 -11 7 -27 16 -35 12 -12 12 -16 2 -16 -10
0 -10 -2 1 -9 7 -5 11 -13 7 -19 -9 -15 34 -26 47 -13 6 6 21 11 33 11 12 0
25 6 27 13 4 9 6 9 6 -1 1 -10 6 -10 23 2 12 9 32 16 44 16 11 0 24 3 28 8 4
4 12 8 17 8 5 1 10 2 12 3 1 2 13 5 27 7 13 2 28 10 32 17 4 6 8 9 8 5 0 -4
15 -1 34 7 18 8 36 11 40 8 3 -4 6 -1 6 6 0 7 4 10 9 6 5 -3 12 -1 16 5 3 5
15 10 25 10 10 0 22 5 26 12 5 7 3 8 -7 3 -12 -8 -12 -6 0 8 9 12 10 17 2 17
-7 0 -10 4 -6 9 3 5 1 12 -5 16 -5 3 -10 17 -10 31 0 13 -4 24 -10 24 -5 0
-10 11 -10 24 0 14 -4 28 -10 31 -5 3 -10 17 -10 30 0 13 -4 27 -10 30 -5 3
-10 17 -10 30 0 13 -5 27 -11 31 -6 3 -9 17 -6 31 3 15 -1 27 -8 29 -7 3 -12
16 -10 29 1 14 -2 22 -6 19 -5 -3 -9 8 -9 25 0 16 -6 32 -12 34 -10 4 -9 6 1
6 9 1 10 5 3 14 -5 6 -13 28 -16 47 -3 19 -8 46 -12 60 -3 14 -6 35 -7 48 -1
12 -4 22 -7 22 -3 0 -5 23 -5 50 0 28 -3 50 -8 50 -5 0 -4 6 2 14 9 10 9 16 1
21 -8 5 -7 11 2 23 10 12 10 14 0 8 -13 -8 -13 19 1 41 4 6 3 15 -3 18 -8 5
-7 11 1 21 9 11 9 14 0 14 -7 0 -9 5 -5 12 5 7 8 27 7 45 0 19 4 36 9 39 5 3
4 12 -3 20 -9 11 -8 14 2 14 11 0 11 2 -1 10 -11 7 -12 10 -2 10 8 0 12 6 9
13 -2 6 2 25 10 41 9 18 10 26 3 21 -7 -4 -5 6 4 24 13 23 13 31 4 31 -9 0
-10 3 -2 8 6 4 16 17 23 30 9 17 9 22 -1 22 -8 0 -9 3 -3 8 15 10 39 64 38 84
0 10 4 15 8 12 5 -3 9 4 9 15 0 12 5 21 10 21 6 0 10 7 10 15 0 8 6 15 13 15
9 0 9 2 -1 9 -11 7 -10 9 3 15 9 3 13 10 10 16 -3 5 -1 10 5 10 6 0 9 4 6 9
-3 5 1 11 9 15 8 3 15 12 15 20 0 8 6 21 14 29 8 8 23 28 33 44 10 17 23 31
28 32 6 0 10 4 10 9 1 20 27 52 38 46 7 -4 9 -4 5 1 -4 4 8 23 27 40 19 18 31
35 28 39 -6 6 12 10 30 7 4 0 6 2 5 6 -4 11 39 53 46 46 3 -4 6 1 6 11 0 9 4
15 9 11 6 -3 15 4 21 16 7 11 14 18 17 15 3 -3 12 2 20 10 8 8 19 11 25 8 7
-4 8 -2 4 4 -4 7 -1 12 9 12 9 0 13 4 10 10 -3 5 6 12 20 16 14 3 25 11 25 16
0 6 7 7 16 4 10 -4 13 -2 8 6 -5 8 -2 9 10 5 9 -4 15 -3 12 2 -6 9 22 26 37
23 4 -1 7 2 7 8 0 5 4 10 9 10 5 0 22 5 38 12 15 6 31 11 36 10 4 -1 7 2 7 8
0 5 9 10 20 10 11 0 20 6 20 13 0 9 3 8 9 -2 6 -9 10 -9 12 -2 2 6 16 12 31
13 15 1 25 5 22 9 -2 4 3 10 12 13 8 3 13 2 10 -3 -4 -5 3 -7 14 -4 11 3 18 8
16 12 -3 4 13 6 35 6 28 0 38 3 34 12 -3 10 0 11 15 3 11 -6 20 -7 20 -2 0 5
11 8 25 7 14 -2 25 2 25 8 0 8 3 8 8 2 10 -14 36 -12 55 3 10 9 17 10 22 2 3
-6 10 -8 15 -5 7 4 161 7 213 3 9 -1 17 -6 17 -12 0 -6 5 -4 10 4 5 8 10 11
10 5 0 -5 19 -11 41 -12 23 -2 49 -8 57 -15 13 -11 14 -11 7 2 -8 13 -6 13 8
1 9 -7 24 -11 32 -7 8 3 15 1 15 -5 0 -5 6 -9 13 -7 6 1 23 -4 36 -11 17 -9
21 -10 16 -1 -5 9 -1 8 16 -1 13 -7 27 -12 32 -11 4 1 7 -2 7 -7 0 -6 9 -8 20
-6 14 3 20 -2 20 -13 0 -15 2 -15 10 -2 7 11 10 11 10 2 0 -7 5 -10 10 -7 6 3
10 1 10 -4 0 -6 9 -11 20 -11 11 0 20 -4 20 -10 0 -5 9 -10 20 -10 11 0 20 -4
20 -10 0 -5 9 -10 20 -10 11 0 20 -4 20 -8 0 -5 16 -14 35 -22 19 -7 32 -17
29 -22 -3 -4 2 -8 10 -8 9 0 16 -4 16 -8 0 -4 14 -13 31 -19 20 -8 28 -16 23
-24 -4 -8 -3 -9 4 -5 6 4 9 13 5 21 -3 8 0 15 7 15 6 0 9 4 5 9 -3 5 -1 12 4
16 6 3 7 13 4 22 -4 9 -2 14 3 10 9 -5 39 77 36 96 -1 4 3 7 9 7 6 0 9 7 5 15
-3 9 0 15 8 15 8 0 12 10 10 26 -1 15 4 28 13 31 12 5 12 7 1 14 -9 6 -10 9
-1 9 7 0 10 7 6 17 -4 11 -3 14 5 9 8 -5 10 -2 6 8 -3 9 -1 16 6 16 6 0 8 5 5
10 -4 6 -1 18 7 27 11 14 11 16 -2 8 -12 -7 -13 -6 -3 7 17 21 21 70 5 76 -7
2 -18 9 -25 15 -7 7 -19 13 -27 15 -8 2 -16 8 -18 13 -2 5 -12 9 -23 9 -10 0
-19 5 -19 10 0 6 -7 10 -16 10 -8 0 -22 7 -31 15 -8 8 -19 13 -24 10 -5 -4 -9
-1 -9 6 0 7 -3 10 -6 7 -5 -6 -90 28 -137 53 -10 5 -22 7 -27 4 -6 -4 -10 -1
-10 5 0 7 -7 10 -15 6 -8 -3 -15 -1 -15 5 0 6 -7 9 -15 5 -8 -3 -15 -1 -15 4
0 6 -5 10 -11 10 -5 0 -7 -6 -4 -12 4 -7 1 -6 -7 2 -7 9 -21 14 -32 12 -11 -2
-16 0 -12 7 5 7 -3 10 -23 7 -17 -2 -31 1 -31 7 0 6 -3 7 -7 4 -3 -4 -12 -2
-20 4 -10 9 -13 8 -13 -1 0 -10 -3 -10 -15 0 -8 7 -15 9 -15 6 0 -4 -9 -2 -20
4 -15 8 -20 8 -20 -2 0 -9 -2 -10 -8 -1 -4 6 -37 13 -74 16 -36 3 -71 8 -77
12 -6 3 -11 1 -11 -5 0 -6 -5 -8 -11 -5 -17 11 -72 17 -66 7 4 -5 0 -9 -8 -9
-8 0 -12 4 -9 8 7 12 -70 6 -78 -6 -5 -6 -8 -6 -8 3 0 6 -5 12 -11 12 -5 0 -7
-6 -3 -12 6 -10 5 -10 -7 -1 -8 6 -20 8 -27 4 -7 -4 -33 -7 -57 -6 -27 1 -45
-2 -45 -9 0 -6 -5 -4 -10 4 -7 11 -10 11 -10 2 0 -10 -5 -10 -20 -2 -15 8 -20
8 -18 -1 2 -6 -10 -13 -27 -15 -68 -7 -115 -17 -115 -26 0 -5 -10 -4 -21 3
-16 8 -20 8 -14 -1 5 -8 1 -11 -11 -9 -11 2 -29 -2 -40 -9 -12 -6 -24 -8 -28
-5 -3 3 -6 0 -6 -8 0 -11 -2 -11 -10 1 -9 13 -10 13 -10 0 0 -9 -9 -17 -20
-18 -44 -4 -50 -6 -50 -15 0 -5 -7 -7 -15 -3 -8 3 -15 1 -15 -5 0 -6 -7 -9
-15 -5 -8 3 -15 1 -15 -3 0 -8 -51 -32 -73 -35 -4 -1 -11 -5 -15 -11 -4 -5
-16 -12 -27 -13 -11 -2 -27 -10 -35 -17 -8 -7 -31 -21 -50 -30 -19 -10 -37
-21 -40 -24 -3 -4 -20 -13 -37 -20 -18 -7 -30 -17 -27 -22 5 -8 -18 -14 -39
-10 -5 1 -6 -3 -2 -9 3 -5 -2 -13 -12 -17 -10 -3 -22 -12 -26 -20 -4 -7 -15
-13 -23 -13 -8 0 -13 -4 -10 -9 3 -5 -4 -11 -15 -14 -13 -4 -18 -10 -13 -18 4
-8 3 -10 -4 -5 -7 4 -12 3 -12 -2 0 -5 -8 -12 -17 -14 -13 -4 -18 1 -18 18 0
15 4 19 11 13 7 -6 10 -1 9 14 -1 12 3 28 9 36 9 12 8 13 -4 7 -8 -4 -6 0 4 8
11 9 16 16 12 16 -5 0 -3 7 4 15 10 12 10 15 -1 15 -9 0 -10 3 -4 8 17 12 41
47 27 38 -7 -4 -4 7 8 26 11 18 20 41 20 51 0 9 5 17 12 17 6 0 8 3 5 6 -3 4
-1 16 5 28 7 11 11 24 10 29 -1 4 2 7 8 7 6 0 9 3 8 8 -3 11 46 112 55 112 5
0 6 4 2 9 -3 5 1 15 8 23 7 7 14 18 15 23 1 6 9 18 18 28 8 11 16 27 17 38 1
10 8 19 15 19 12 0 12 3 1 17 -8 9 -9 14 -4 12 6 -3 18 2 28 13 9 10 15 18 12
18 -10 0 17 45 32 53 7 5 11 12 8 18 -4 5 1 12 9 15 9 3 16 12 16 20 0 8 5 14
12 14 6 0 8 3 5 7 -4 3 1 12 11 20 11 10 12 12 2 8 -10 -4 -9 -2 3 8 9 8 17
19 17 24 0 5 11 20 25 33 14 13 25 27 25 32 0 5 16 25 35 45 19 20 35 40 35
44 0 5 20 29 45 55 25 25 42 50 39 55 -3 5 -2 8 3 7 8 -3 51 35 56 50 1 4 5 6
10 4 4 -1 7 2 7 6 0 9 68 82 76 82 3 0 15 9 27 21 21 19 21 20 2 14 -11 -3 -7
1 9 11 17 9 45 32 63 52 18 19 33 32 33 29 0 -4 21 14 47 38 26 25 53 45 60
45 8 0 12 4 9 9 -6 9 22 26 36 23 4 -1 5 5 2 13 -5 11 -2 13 12 8 12 -4 15 -3
10 5 -4 7 -1 12 9 12 8 0 18 7 22 16 5 13 7 13 14 2 7 -10 9 -9 9 5 0 9 6 17
14 17 8 0 17 7 20 16 3 8 10 13 15 10 5 -3 11 1 15 9 3 8 12 15 21 15 8 0 15
5 15 11 0 5 4 8 9 5 5 -3 12 1 15 10 3 8 10 12 16 9 5 -3 10 -2 10 3 0 4 20
19 45 31 25 12 45 27 45 32 0 6 5 7 10 4 6 -3 10 -1 10 4 0 6 3 10 8 9 4 -1
19 6 34 16 15 10 33 14 39 10 7 -4 9 -3 5 4 -3 6 4 14 16 18 13 4 29 14 36 23
10 12 12 12 6 1 -5 -10 0 -9 14 4 12 11 22 15 22 10 0 -5 4 -4 8 1 4 6 26 19
50 29 23 11 42 23 42 27 0 5 6 6 14 3 7 -3 20 2 29 10 8 8 17 12 21 9 3 -3 12
-1 19 5 8 7 17 9 20 5 4 -3 7 0 7 7 0 7 3 11 6 7 3 -3 20 2 37 12 18 10 42 17
54 16 12 -1 21 3 20 9 -1 6 6 10 17 8 10 -2 15 1 12 6 -3 5 0 10 7 9 38 -1 58
4 52 14 -4 6 -1 10 6 8 29 -3 60 1 55 9 -2 4 8 7 22 6 15 0 32 5 39 12 14 14
18 58 5 50 -5 -3 -9 11 -10 32 -1 20 -6 38 -12 40 -5 2 -10 11 -10 21 0 9 -6
23 -12 30 -11 11 -10 12 2 6 12 -7 13 -6 3 7 -7 8 -10 18 -6 21 3 4 -2 9 -11
13 -9 3 -13 10 -10 15 3 5 2 15 -3 22 -8 12 -13 32 -15 55 -1 6 -8 12 -17 12
-14 0 -14 2 -1 10 11 7 11 10 2 10 -7 0 -10 5 -7 10 3 6 2 10 -3 10 -5 0 -9
10 -8 23 1 13 -4 21 -12 19 -8 -1 -11 1 -8 6 17 28 -53 52 -75 26z"/>
<path d="M847 3702 c-20 -2 -35 -7 -33 -11 3 -4 -7 -7 -22 -6 -29 2 -62 -13
-75 -32 -4 -7 -13 -10 -20 -8 -6 3 -27 -8 -46 -24 -19 -17 -39 -27 -44 -24 -6
4 -7 1 -3 -6 5 -8 -5 -24 -25 -43 -19 -17 -27 -27 -19 -23 13 7 13 6 2 -7 -7
-9 -11 -22 -10 -29 2 -8 -1 -13 -7 -12 -6 1 -10 -26 -10 -63 0 -35 3 -64 7
-64 5 0 8 -11 8 -25 0 -14 9 -30 19 -37 10 -6 17 -17 14 -23 -2 -7 3 -15 11
-18 9 -4 16 -13 16 -22 0 -8 3 -14 8 -14 19 3 32 -2 30 -12 -2 -6 6 -13 17
-15 11 -1 25 -10 31 -18 6 -9 21 -16 33 -16 11 0 21 -5 21 -11 0 -5 5 -7 10
-4 6 3 10 1 10 -6 0 -10 3 -10 12 -1 9 9 16 8 32 -6 14 -12 17 -13 11 -2 -7
12 -6 13 6 3 12 -10 18 -10 29 0 10 10 11 9 5 -3 -8 -13 -7 -13 8 -1 9 7 17 9
17 4 0 -13 43 -11 52 2 5 6 8 5 8 -2 0 -7 5 -13 11 -13 5 0 7 5 4 10 -4 6 6
10 22 10 16 0 35 6 42 13 11 10 12 9 6 -3 -7 -12 -4 -11 11 2 10 9 21 17 24
17 18 0 39 15 33 24 -3 6 -1 7 5 3 14 -8 53 24 45 37 -3 6 -1 7 6 3 6 -4 14 0
17 8 3 9 10 14 14 11 4 -3 11 2 14 11 4 10 2 13 -7 9 -6 -4 -4 0 5 8 21 17 40
65 32 79 -4 6 -2 8 3 5 7 -5 11 13 11 53 -1 33 -5 60 -10 60 -5 0 -6 5 -3 10
3 6 2 10 -4 10 -5 0 -8 9 -6 19 2 11 -3 22 -11 25 -8 3 -14 10 -14 16 0 6 -12
23 -27 37 -16 14 -27 30 -25 35 2 6 -4 8 -13 4 -9 -3 -18 1 -21 9 -4 8 -15 15
-25 15 -10 0 -19 5 -19 11 0 5 -4 7 -10 4 -5 -3 -10 -2 -10 4 0 6 -7 8 -15 5
-8 -4 -15 -1 -15 6 0 6 -4 9 -8 6 -5 -3 -20 1 -34 8 -17 9 -31 10 -43 4 -10
-6 -20 -6 -24 -2 -7 10 -13 11 -64 6z"/>
<path d="M6034 3702 c4 -7 1 -12 -6 -13 -34 -2 -63 -11 -70 -22 -4 -6 -8 -8
-8 -3 0 5 -8 2 -17 -5 -14 -12 -16 -12 -9 1 4 8 1 7 -8 -4 -8 -10 -19 -15 -25
-11 -6 3 -11 -1 -11 -9 0 -14 -12 -20 -32 -17 -5 0 -8 -4 -8 -10 0 -7 -9 -19
-20 -29 -10 -9 -24 -29 -30 -44 -5 -15 -14 -25 -19 -22 -4 3 -7 -6 -5 -19 1
-14 -1 -25 -5 -25 -4 0 -8 -27 -9 -60 0 -37 4 -60 10 -60 6 0 9 -3 5 -6 -3 -4
0 -19 9 -35 8 -16 12 -29 10 -29 -3 0 16 -22 42 -49 26 -26 50 -46 55 -44 4 2
7 -1 7 -6 0 -6 7 -11 15 -11 8 0 15 -4 15 -10 0 -5 9 -10 20 -10 11 0 20 -4
20 -8 0 -4 8 -8 18 -9 49 -3 72 -8 72 -18 0 -5 5 -3 10 5 9 13 10 13 10 0 0
-13 1 -13 10 0 5 8 10 10 10 4 0 -6 10 -10 23 -9 12 1 22 3 22 4 0 1 22 4 49
7 27 2 55 9 62 15 7 6 18 8 24 4 5 -3 10 -1 10 5 0 6 5 8 10 5 6 -3 10 -1 10
4 0 6 6 11 14 11 22 0 102 82 122 126 10 21 23 42 28 46 7 5 6 8 -2 8 -8 0
-10 5 -5 13 11 18 11 107 0 100 -5 -3 -7 0 -5 8 3 8 -2 23 -11 33 -13 16 -13
18 -1 12 9 -5 8 -2 -2 7 -10 8 -15 17 -11 20 3 4 1 7 -5 7 -7 0 -12 7 -12 15
0 9 -8 19 -17 22 -10 4 -24 15 -31 25 -7 10 -18 16 -23 12 -5 -3 -8 0 -7 8 2
7 -7 14 -19 16 -13 2 -23 8 -23 13 0 5 -11 9 -25 9 -14 0 -25 5 -25 11 0 5 -4
8 -9 4 -5 -3 -12 -1 -15 3 -3 5 -17 8 -31 7 -14 -2 -25 0 -25 4 0 4 -19 5 -42
2 -54 -8 -60 -8 -77 3 -10 6 -12 5 -7 -2z"/>
</g>
</svg>

